<svg width="18" height="12" viewBox="0 0 18 12" fill="none" xmlns="http://www.w3.org/2000/svg">
<path fill-rule="evenodd" clip-rule="evenodd" d="M17.5652 1.30259L16.6993 0.436327C16.3992 0.151562 16.0487 0.00914001 15.6486 0.00914001C15.2403 0.00914001 14.8939 0.151562 14.609 0.436327L8.99636 6.04917L3.38372 0.436488C3.09887 0.151724 2.75246 0.00930181 2.34429 0.00930181C1.944 0.00930181 1.59359 0.151724 1.29345 0.436488L0.438836 1.30275C0.146225 1.59516 0 1.94558 0 2.35367C0 2.76937 0.146387 3.11582 0.438796 3.39294L7.95689 10.9111C8.23417 11.2035 8.58046 11.3499 8.99632 11.3499C9.40437 11.3499 9.75475 11.2036 10.0471 10.9111L17.5652 3.39294C17.8501 3.10801 17.9926 2.7616 17.9926 2.35367C17.9927 1.95318 17.8501 1.60297 17.5652 1.30259Z" fill="#252525"/>
</svg>
