<svg width="20" height="20" viewBox="0 0 20 20" fill="none" xmlns="http://www.w3.org/2000/svg">
<path d="M2.39686 15.0992C2.43515 14.7546 2.45429 14.5824 2.50642 14.4213C2.55268 14.2784 2.61802 14.1425 2.70069 14.0171C2.79388 13.8758 2.91645 13.7532 3.1616 13.5081L14.1669 2.50285C15.0873 1.58238 16.5797 1.58238 17.5002 2.50286C18.4207 3.42333 18.4207 4.91572 17.5002 5.83619L6.49493 16.8414C6.24978 17.0866 6.12721 17.2091 5.9859 17.3023C5.86054 17.385 5.72457 17.4503 5.5817 17.4966C5.42067 17.5487 5.24838 17.5679 4.9038 17.6062L2.0835 17.9195L2.39686 15.0992Z" stroke="currentColor" stroke-width="1.66667" stroke-linecap="round" stroke-linejoin="round"/>
</svg>
