<svg width="26" height="22" viewBox="0 0 26 22" fill="none" xmlns="http://www.w3.org/2000/svg">
<path d="M1.33301 5.16406L10.8587 11.8321C11.6301 12.372 12.0158 12.642 12.4353 12.7466C12.8059 12.839 13.1935 12.839 13.564 12.7466C13.9836 12.642 14.3692 12.372 15.1406 11.8321L24.6663 5.16406M6.93301 20.3307H19.0663C21.0265 20.3307 22.0066 20.3307 22.7553 19.9493C23.4139 19.6137 23.9493 19.0783 24.2849 18.4197C24.6663 17.671 24.6663 16.6909 24.6663 14.7307V7.26406C24.6663 5.30388 24.6663 4.32379 24.2849 3.5751C23.9493 2.91653 23.4139 2.3811 22.7553 2.04554C22.0066 1.66406 21.0265 1.66406 19.0663 1.66406H6.93301C4.97282 1.66406 3.99273 1.66406 3.24404 2.04554C2.58547 2.3811 2.05004 2.91653 1.71448 3.5751C1.33301 4.32379 1.33301 5.30388 1.33301 7.26406V14.7307C1.33301 16.6909 1.33301 17.671 1.71448 18.4197C2.05004 19.0783 2.58547 19.6137 3.24404 19.9493C3.99273 20.3307 4.97282 20.3307 6.93301 20.3307Z" stroke="#667085" stroke-width="2" stroke-linecap="round" stroke-linejoin="round"/>
</svg>